# xmcd
#
# Track frame offsets:
#	150
#	7342
#	17710
#	39740
#	49520
#	56842
#	63727
#	71040
#	84572
#	97117
#	107992
#	127222
#	137465
#	161615
#	171507
#	181247
#	198092
#	218812
#	222905
#	227027
#	242522
#	255047
#	273800
#	277632
#	295437
#	304672
#	318320
#
# Disc length: 4314 seconds
#
# Revision: 1
# Processed by: cddbd v1.5.1PL0 Copyright (c) Steve Scherf et al.
# Submitted via: CDex 1.50Beta5
#
DISCID=8e10d81b
DTITLE=サウンドトラック - 龍騎CB5
DYEAR=1900
DGENRE=Soundtrack
TTITLE0=サウンドトラック/1.松田悟 as 秋山蓮 出会い
TTITLE1=2.Lonely Soldier(コーラスなしカラオケ)
TTITLE2=3.最期
TTITLE3=4.蓮
TTITLE4=5.Last Message
TTITLE5=6.杉山彩乃 as 神崎優衣 オーディション
TTITLE6=7.優衣
TTITLE7=8.INORI(コーラスなしカラオケ)
TTITLE8=9.Last Message
TTITLE9=10.優衣ちゃんへ
TTITLE10=11.涼平 as 北岡秀一 悪徳弁護士
TTITLE11=12.北岡
TTITLE12=13.最期
TTITLE13=14.Last Message
TTITLE14=15.弓削智久 as 由良吾郎 吾郎
TTITLE15=16.Dear Friend(コーラスなしカラオケ)
TTITLE16=17.最期
TTITLE17=18.Last Message
TTITLE18=サウンドトラック/19.萩野崇 as 朝倉威 ラストまで
TTITLE19=サウンドトラック/20.朝倉
TTITLE20=21.spinnin’n around(コーラスなしカラオケ)
TTITLE21=22.最期
TTITLE22=23.Last Message
TTITLE23=24.須賀貴匡 as 城戸真司「龍騎」
TTITLE24=25.真司
TTITLE25=26.最期
TTITLE26=27.Last Message
EXTD=
EXTT0=
EXTT1=
EXTT2=
EXTT3=
EXTT4=
EXTT5=
EXTT6=
EXTT7=
EXTT8=
EXTT9=
EXTT10=
EXTT11=
EXTT12=
EXTT13=
EXTT14=
EXTT15=
EXTT16=
EXTT17=
EXTT18=
EXTT19=
EXTT20=
EXTT21=
EXTT22=
EXTT23=
EXTT24=
EXTT25=
EXTT26=
PLAYORDER=
